<?xml version="1.0" encoding="UTF-8"?><svg id="a" xmlns="http://www.w3.org/2000/svg" viewBox="0 0 1983.52 285.37"><defs><style>.b{fill:#c37da2;}.c{fill:#e9d3d3;}</style></defs><g><path class="b" d="M1080.14,281.24V3.96c4.44-.39,8.63-1.08,12.82-1.09,37.58-.08,75.17-.48,112.75,.13,19.03,.31,37.91,3.15,55.46,11.37,42.97,20.13,52.05,74.88,17.07,105.38-7.14,6.22-16.5,9.89-26,15.4,3.05,.83,5.89,1.52,8.68,2.38,28.49,8.77,46.63,33.97,47.96,66.56,1.19,29.35-16.27,56.73-44.12,68-14.47,5.86-29.37,10.18-45.37,10.09-43.93-.26-87.86-.08-131.79-.11-1.92,0-3.83-.42-7.46-.84Zm62.81-50.38c22.54,0,43.42,.46,64.25-.27,6.51-.23,13.25-2.98,19.26-5.88,8.83-4.25,13.83-11.75,14.92-21.8,2.09-19.16-6.49-31.85-25.76-36.02-23.91-5.17-48.07-1.54-72.68-2.66v66.63Zm.26-177.24v62.72c20.82,0,40.69,.15,60.57-.13,3.76-.05,7.61-1.51,11.21-2.88,12.26-4.66,19.78-16.7,18.96-29.9-.9-14.54-9.46-25.12-23.54-27.68-22.13-4.02-44.41-1.52-67.2-2.13Z"/><path class="b" d="M1851.42,87.35c18.38-29.17,35.52-56.37,52.6-83.49h74.36c-29.35,45.22-57.39,88.43-86.17,132.77,30.28,47.14,60.73,94.55,91.31,142.17-10.69,4.03-47.97,5.01-74.52,2.17-18.57-29.04-37.69-58.93-57.92-90.57-19.86,30.97-38.96,60.76-58.25,90.85h-73.98c31.73-48.09,62.24-94.31,93.39-141.53-28.49-44.33-57.07-88.8-86.93-135.26,13.84-2.77,25.4-1.35,36.8-1.59,11.68-.24,23.37-.05,36.1-.05,17.45,27.73,34.78,55.25,53.22,84.53Z"/><path class="b" d="M996.7,56.14h-140.5V230.17c15.57,.78,31.46,.32,47.31,.44,16.09,.12,32.19,.09,48.28,.11,15.97,.02,31.94,0,48.84,0v50.56c-10.8,2.94-187.67,3.71-205.79,1-3-10.27-4.14-251.48-1.3-275.51,10.58-3.06,187.59-3.62,203.15-.43V56.14Z"/><path class="b" d="M100.49,173.16c2.96-19.18,5.46-35.39,8.21-53.19h68.98V3.93h62.25c3.18,10.76,3.92,258.92,.76,277.1h-62.53c-.13-17.89-.3-35.75-.36-53.6-.06-17.5-.01-35-.01-54.27H100.49Z"/><path class="b" d="M1561.43,280.54c-41.44,10.02-80.27,4.51-115.79-17.23-43.57-26.66-66.19-65.99-67.75-117.35-1.55-51.13,19.39-91.18,61.32-119.08,44.09-29.33,92.52-33.54,142.84-18.05,2.51,.77,4.69,2.63,9.17,5.23-16.78,2.44-31.5,3.07-45.36,6.88-47.58,13.08-82.77,41.28-98.67,89.1-14.47,43.54-2.48,82.8,24.94,117.72,20.86,26.56,48.2,43.6,81.69,50.13,2.61,.51,5.07,1.75,7.6,2.65Z"/><path class="b" d="M391.13,282.38h-60.42c-3.27-10.57-3.74-264.33-.36-279.06h59.22c3.47,10.32,4.9,248.83,1.56,279.06Z"/><path class="b" d="M0,3.79H62.69V281.26H0V3.79Z"/><path class="b" d="M456.04,3.76h62.04c33.55,91.51,67.31,183.57,101.85,277.79-11.8,.22-21.79,.49-31.79,.58-9.69,.09-19.38,.02-30.11,.02-33.99-92.78-67.71-184.82-101.99-278.39Z"/><path class="b" d="M642.14,236.33c-17.92-9.48-28.49-22.52-33.91-39.91-2.48-7.97-3.19-15.8-.36-24.27,18.01-53.99,35.56-108.13,53.31-162.2,.59-1.8,1.7-3.44,2.43-4.88,13.27-3.26,50.82-3.08,63.96,.74-27.81,76.59-56.35,152.77-85.42,230.53Z"/><path class="b" d="M982.94,168.9h-89.86c2.57-17.74,4.97-34.26,7.37-50.86h82.48v50.86Z"/></g><path class="c" d="M1542.45,234.39c47.17-13.53,74.84-41.91,75.96-88.8,1.09-45.75-26.1-73.58-68.4-89.59,28.42-10.19,67.5,2.27,88.04,26.81,25.92,30.98,31.75,79.13,13.39,110.59-20.82,35.67-56.97,49.95-108.99,40.98Z"/></svg>